<?xml version="1.0" standalone="no"?>
<!DOCTYPE svg PUBLIC "-//W3C//DTD SVG 20010904//EN"
 "http://www.w3.org/TR/2001/REC-SVG-20010904/DTD/svg10.dtd">
<svg version="1.0" xmlns="http://www.w3.org/2000/svg"
 width="320.000000pt" height="320.000000pt" viewBox="0 0 320.000000 320.000000"
 preserveAspectRatio="xMidYMid meet">
<metadata>
Created by potrace 1.14, written by Peter Selinger 2001-2017
</metadata>
<g transform="translate(0.000000,320.000000) scale(0.100000,-0.100000)"
fill="#000000" stroke="none">
<path d="M1575 3141 c-11 -4 -48 -11 -83 -14 -73 -7 -138 -33 -181 -74 -17
-15 -45 -39 -63 -52 -161 -117 -204 -391 -102 -647 28 -73 103 -228 156 -322
17 -32 53 -96 80 -143 26 -48 48 -94 48 -103 0 -9 -15 -53 -34 -98 -99 -239
-133 -420 -103 -541 25 -102 103 -172 191 -172 28 -1 68 -7 88 -14 48 -16 139
-20 202 -9 111 21 184 113 190 240 3 68 -8 157 -26 203 -14 37 -120 251 -159
321 l-28 52 56 108 c30 59 66 125 80 146 33 54 147 281 173 348 34 86 50 190
46 298 -5 135 -38 222 -134 347 -35 46 -43 51 -107 66 -39 9 -95 27 -125 39
-61 24 -135 34 -165 21z m48 -296 c43 -20 93 -74 115 -124 24 -55 21 -208 -6
-301 -38 -132 -134 -360 -152 -360 -4 0 -12 10 -19 23 -6 12 -20 36 -31 52
-19 30 -95 179 -123 245 -75 172 -71 361 11 453 33 37 139 44 205 12z"/>
<path d="M330 595 l0 -111 35 -2 c35 -3 35 -2 35 38 0 38 7 46 41 42 3 -1 11
10 17 23 11 24 10 25 -24 25 -31 0 -35 3 -32 23 2 18 9 22 42 22 36 0 51 12
55 45 1 3 -37 5 -84 5 l-85 1 0 -111z"/>
<path d="M526 701 c-2 -3 -3 -53 -2 -111 l1 -105 33 -3 c35 -4 33 -11 34 118
0 108 1 106 -33 106 -16 0 -32 -2 -33 -5z"/>
<path d="M639 670 c-2 -101 0 -171 6 -180 3 -5 19 -10 36 -10 27 0 29 2 29 40
0 35 3 40 23 40 16 0 28 9 35 25 11 24 10 25 -23 25 -31 0 -35 3 -35 26 0 21
4 25 28 23 47 -4 60 0 65 21 6 24 12 22 -85 24 l-78 1 -1 -35z"/>
<path d="M835 661 c-9 -25 -27 -74 -40 -108 -12 -34 -20 -64 -17 -67 12 -13
62 -6 62 9 0 11 12 15 44 15 30 0 46 -5 50 -15 3 -9 18 -15 36 -15 38 0 40
-12 -33 184 -12 35 -18 39 -50 41 -33 3 -36 1 -52 -44z m69 -77 c6 -27 4 -31
-14 -30 -25 1 -25 2 -16 51 8 43 18 36 30 -21z"/>
<path d="M1040 697 c0 -7 7 -40 15 -74 8 -34 17 -77 20 -95 8 -41 9 -43 52
-44 39 -2 37 -5 54 96 l13 75 13 -80 c8 -43 16 -81 18 -84 2 -2 20 -5 39 -7
26 -3 36 0 40 13 6 21 46 200 46 208 0 3 -13 5 -29 5 -27 0 -30 -3 -37 -52 -5
-29 -9 -57 -10 -63 -1 -5 -3 -19 -4 -30 -2 -27 -16 18 -25 82 -8 60 -10 63
-50 63 -36 0 -39 -5 -49 -70 -8 -51 -24 -99 -25 -76 -1 11 -6 47 -12 81 -10
59 -12 62 -40 63 -16 0 -29 -5 -29 -11z"/>
<path d="M1405 698 c-55 -30 -73 -110 -38 -169 38 -64 159 -63 193 2 18 33 16
103 -3 133 -29 43 -105 60 -152 34z m87 -45 c41 -37 9 -139 -40 -126 -42 11
-52 91 -16 127 20 20 33 20 56 -1z"/>
<path d="M1596 698 c-3 -7 -4 -58 -3 -113 l2 -100 28 -2 c26 -2 27 0 27 43 0
37 3 44 19 44 14 0 24 -13 36 -44 15 -38 20 -43 46 -42 32 1 32 10 0 77 -16
35 -16 37 1 48 22 14 24 64 2 82 -22 18 -153 24 -158 7z m107 -37 c15 -2 6
-39 -10 -43 -26 -7 -43 1 -43 21 0 23 8 30 28 26 9 -2 20 -4 25 -4z"/>
<path d="M1807 703 c-2 -4 -4 -55 -3 -113 l1 -105 74 0 c69 0 74 2 77 23 4 20
0 22 -44 22 l-48 0 1 88 c0 87 0 87 -27 90 -14 2 -28 0 -31 -5z"/>
<path d="M1986 702 c-2 -4 -3 -54 -2 -112 l1 -105 55 0 c30 0 67 3 81 8 89 28
100 167 17 201 -34 14 -145 19 -152 8z m134 -57 c16 -10 12 -82 -6 -99 -8 -9
-28 -16 -43 -16 -28 0 -28 1 -30 61 -1 33 1 64 4 69 5 8 53 -1 75 -15z"/>
<path d="M2324 696 c-35 -16 -58 -61 -56 -113 3 -73 85 -119 170 -97 13 4 22
14 22 25 0 16 -8 19 -48 19 -34 0 -54 5 -65 18 -50 56 6 139 77 113 21 -9 28
-8 32 4 12 29 -3 41 -52 43 -27 1 -63 -4 -80 -12z"/>
<path d="M2480 706 c-1 -1 -2 -37 -3 -80 -1 -59 2 -86 15 -107 30 -50 133 -51
165 -3 11 18 16 50 17 109 l1 85 -30 0 -30 0 -1 -82 c-1 -66 -4 -84 -19 -94
-13 -9 -23 -10 -36 -3 -19 10 -22 24 -20 126 0 51 0 52 -29 51 -17 -1 -30 -1
-30 -2z"/>
<path d="M2700 595 l0 -116 28 4 c23 3 27 9 30 40 2 20 6 37 10 38 71 7 102
29 102 74 0 46 -30 66 -103 71 l-67 5 0 -116z m91 65 c10 -6 19 -17 19 -25 0
-13 -28 -35 -44 -35 -3 0 -6 16 -6 35 0 38 2 40 31 25z"/>
<path d="M529 405 c-75 -33 -96 -134 -40 -197 37 -42 271 -166 271 -144 0 35
-25 66 -76 92 -30 16 -54 31 -54 34 0 3 16 14 35 24 64 35 70 136 10 179 -35
25 -102 30 -146 12z m100 -52 c24 -20 31 -76 13 -108 -27 -48 -27 -48 -60 -31
-17 9 -38 26 -46 38 -50 70 28 154 93 101z"/>
<path d="M1052 399 c-13 -5 -26 -18 -29 -29 -3 -11 -11 -20 -19 -20 -16 0 -35
-33 -26 -46 4 -5 14 -9 22 -9 10 0 15 -15 17 -60 4 -93 8 -95 220 -95 169 0
175 1 196 23 12 13 27 32 34 43 10 17 12 14 12 -23 1 -41 2 -43 31 -43 l31 0
-3 103 -3 102 -52 3 c-95 6 -153 -43 -148 -123 l3 -35 -124 0 c-144 0 -146 1
-135 96 0 6 11 11 24 11 43 1 47 3 47 27 0 21 -4 24 -27 22 -41 -5 -49 1 -47
34 1 17 1 30 1 29 -1 0 -13 -4 -25 -10z m412 -143 c-27 -78 -63 -86 -66 -14
-2 47 7 58 47 58 l34 0 -15 -44z"/>
<path d="M1816 400 c-37 -7 -56 -22 -56 -47 0 -7 6 -11 13 -8 73 24 124 2 111
-49 -6 -27 -60 -76 -107 -97 -18 -8 -27 -20 -27 -36 0 -23 2 -23 100 -23 55 0
100 3 101 8 0 4 2 15 4 25 3 15 -6 17 -73 17 l-77 0 51 24 c59 27 94 67 94
106 0 58 -59 93 -134 80z"/>
<path d="M2069 397 c-101 -26 -119 -154 -32 -226 47 -39 64 -42 111 -21 57 26
87 73 87 139 0 48 -3 56 -33 81 -38 31 -82 40 -133 27z m97 -72 c15 -24 12
-90 -5 -124 -25 -47 -68 -50 -96 -8 -20 31 -28 103 -15 127 23 42 90 45 116 5z"/>
<path d="M2090 284 c-11 -12 -10 -18 3 -32 16 -15 18 -15 34 0 13 14 14 20 3
32 -7 9 -16 16 -20 16 -4 0 -13 -7 -20 -16z"/>
<path d="M2312 399 c-38 -8 -37 -7 -46 -36 -7 -21 -5 -22 26 -17 18 4 35 7 38
6 43 -1 50 -4 56 -27 9 -35 -16 -69 -82 -111 -36 -23 -54 -41 -54 -55 0 -19 6
-20 103 -17 97 3 102 4 105 26 3 21 0 22 -75 23 -68 0 -74 2 -48 11 35 13 85
45 102 68 19 24 16 84 -6 104 -25 23 -78 34 -119 25z"/>
<path d="M2547 400 c-43 -8 -42 -8 -51 -37 -6 -20 -5 -21 21 -14 38 10 84 5
94 -11 25 -38 -3 -79 -88 -132 -28 -17 -43 -33 -43 -46 0 -20 5 -21 103 -18
97 3 102 4 105 26 3 21 0 22 -75 23 l-78 0 44 18 c68 28 101 63 101 109 0 62
-54 95 -133 82z"/>
<path d="M830 344 c-61 -21 -84 -56 -82 -126 3 -55 17 -78 51 -78 30 0 64 29
80 70 9 22 10 19 10 -22 1 -46 2 -48 31 -48 l30 0 0 103 0 104 -52 1 c-29 0
-60 -2 -68 -4z m57 -56 c-2 -7 -10 -30 -17 -50 -14 -37 -33 -53 -51 -42 -10 6
-12 87 -2 97 12 13 75 8 70 -5z"/>
<path d="M1586 266 c1 -45 3 -91 3 -103 1 -19 7 -23 31 -23 27 0 30 3 30 30 0
59 50 136 74 113 3 -3 6 10 6 30 0 20 -5 37 -10 37 -12 0 -50 -37 -66 -65 -9
-16 -10 -14 -8 13 2 34 -8 46 -42 48 -19 1 -20 -4 -18 -80z"/>
</g>
</svg>
